<svg width="19" height="19" viewBox="0 0 19 19" fill="none" xmlns="http://www.w3.org/2000/svg">
<path d="M8.39164 10.0624C8.31744 9.98879 8.25854 9.90123 8.21835 9.80476C8.17816 9.70829 8.15746 9.60481 8.15746 9.5003C8.15746 9.39579 8.17816 9.29232 8.21835 9.19585C8.25854 9.09937 8.31744 9.01181 8.39164 8.93822L12.0254 5.31239C12.0996 5.23879 12.1585 5.15123 12.1987 5.05476C12.2389 4.95829 12.2596 4.85481 12.2596 4.7503C12.2596 4.64579 12.2389 4.54232 12.1987 4.44585C12.1585 4.34937 12.0996 4.26181 12.0254 4.18822C11.8771 4.04077 11.6764 3.95801 11.4673 3.95801C11.2581 3.95801 11.0575 4.04077 10.9091 4.18822L7.27539 7.82197C6.83063 8.26728 6.58081 8.87093 6.58081 9.5003C6.58081 10.1297 6.83063 10.7333 7.27539 11.1786L10.9091 14.8124C11.0566 14.9586 11.2556 15.0411 11.4633 15.042C11.5675 15.0426 11.6708 15.0226 11.7672 14.9832C11.8637 14.9438 11.9514 14.8858 12.0254 14.8124C12.0996 14.7388 12.1585 14.6512 12.1987 14.5548C12.2389 14.4583 12.2596 14.3548 12.2596 14.2503C12.2596 14.1458 12.2389 14.0423 12.1987 13.9458C12.1585 13.8494 12.0996 13.7618 12.0254 13.6882L8.39164 10.0624Z" fill="#07011A"/>
</svg>
