<svg width="18" height="19" viewBox="0 0 18 19" fill="none" xmlns="http://www.w3.org/2000/svg">
<path fill-rule="evenodd" clip-rule="evenodd" d="M15.3472 3.4744C13.6627 1.7884 11.4232 0.859148 9.03747 0.858398C4.12122 0.858398 0.119975 4.8589 0.117725 9.7774C0.116975 11.3494 0.527975 12.8839 1.30872 14.2369L0.0427246 18.8584L4.77072 17.6179C6.07347 18.3289 7.54047 18.7031 9.03297 18.7039H9.03672C13.9522 18.7039 17.9542 14.7026 17.9565 9.78415C17.958 7.4014 17.031 5.15965 15.3472 3.4744ZM9.03747 17.1971H9.03447C7.70397 17.1971 6.39972 16.8394 5.26122 16.1636L4.99047 16.0031L2.18472 16.7389L2.93397 14.0029L2.75772 13.7224C2.01522 12.5419 1.62372 11.1776 1.62447 9.7774C1.62597 5.6899 4.95222 2.3644 9.04122 2.3644C11.0212 2.3644 12.8827 3.1369 14.2822 4.5379C15.6817 5.93965 16.452 7.8019 16.4512 9.78265C16.449 13.8716 13.1235 17.1971 9.03747 17.1971ZM13.104 11.6449C12.8812 11.5331 11.7855 10.9939 11.5807 10.9196C11.3767 10.8454 11.2282 10.8079 11.079 11.0306C10.9297 11.2534 10.5037 11.7559 10.3732 11.9051C10.2435 12.0536 10.113 12.0724 9.89022 11.9606C9.66747 11.8489 8.94897 11.6141 8.09772 10.8544C7.43547 10.2634 6.98772 9.53365 6.85797 9.31015C6.72822 9.08665 6.84447 8.96665 6.95547 8.85565C7.05597 8.7559 7.17822 8.5954 7.28997 8.4649C7.40247 8.3359 7.43922 8.2429 7.51422 8.09365C7.58847 7.94515 7.55172 7.81465 7.49547 7.7029C7.43922 7.5919 6.99372 6.49465 6.80847 6.0484C6.62772 5.6134 6.44397 5.67265 6.30672 5.6659C6.17697 5.65915 6.02847 5.6584 5.87922 5.6584C5.73072 5.6584 5.48922 5.7139 5.28522 5.9374C5.08122 6.1609 4.50522 6.70015 4.50522 7.79665C4.50522 8.8939 5.30397 9.95365 5.41497 10.1021C5.52597 10.2506 6.98622 12.5021 9.22197 13.4674C9.75372 13.6969 10.1692 13.8341 10.4925 13.9369C11.0265 14.1064 11.5125 14.0824 11.8965 14.0254C12.3247 13.9616 13.215 13.4861 13.401 12.9656C13.587 12.4451 13.587 11.9981 13.5307 11.9059C13.4752 11.8121 13.3267 11.7566 13.104 11.6449Z" fill="#07011A"/>
</svg>
